<svg id="Layer_1" data-name="Layer 1" xmlns="http://www.w3.org/2000/svg" width="190" height="200" viewBox="0 0 372.1727 231.6367"><defs><style>.cls-1,.cls-2{fill:#2b2b2b;}.cls-2{fill-rule:evenodd;}.cls-3{fill:#ffcb04;}.cls-4{fill:#2e368e;}</style></defs><path class="cls-1" d="M108.5448,44.6561V.8206h6.7793l7.2373,35.1172L129.5233.8206h6.7783V44.6561h-4.5859V9.4105L124.74,44.595h-4.6709L112.7938,9.7444V44.6561Z"/><path class="cls-1" d="M141.3456,44.6561V.8206h4.8906V44.6561Z"/><path class="cls-1" d="M151.2186,44.6561V.8206h4.8906V20.5682H166.87V.8206h4.8906V44.6561H166.87V24.9393H156.1092V44.6561Z"/><path class="cls-1" d="M176.744,44.6561V.8206h4.8906V44.6561Z"/><path class="cls-1" d="M186.25,34.0794V11.428q0-5.1357,2.457-8.0854t7.34-2.95q4.8986,0,7.3789,2.95t2.48,8.0854v3.9434h-4.5849V11.1531q0-6.328-5.15-6.3281a4.5978,4.5978,0,0,0-3.8638,1.6509,7.4543,7.4543,0,0,0-1.2881,4.6772V34.324a7.4529,7.4529,0,0,0,1.2881,4.6768,4.5978,4.5978,0,0,0,3.8638,1.6509q5.15,0,5.15-6.3277V28.638h4.5849v5.4414q0,5.1357-2.48,8.07t-7.3789,2.9346q-4.8845,0-7.34-2.9346Q186.2489,39.2152,186.25,34.0794Z"/><path class="cls-1" d="M209.0238,5.2835V.8206H230.055V5.2835h-8.07V44.6561h-4.8906V5.2835Z"/><path class="cls-1" d="M233.6625,44.6561V.8206h18.0351V5.2835H238.5531V20.2318h10.6992v4.4018H238.5531v15.59h13.1445v4.4326Z"/><path class="cls-1" d="M256.1918,44.6561V.8206h9.5976q5.0289,0,7.4522,2.7974,2.4213,2.7963,2.4218,7.9321v5.2578q0,10.577-10.2529,10.5767h-4.3281V44.6561Zm4.8906-21.6734h4.31a5.3463,5.3463,0,0,0,4.0811-1.3906,6.43,6.43,0,0,0,1.2988-4.4785V11.2752A7.1028,7.1028,0,0,0,269.58,6.7513a4.64,4.64,0,0,0-3.8213-1.4678h-4.6767Z"/><path class="cls-1" d="M279.0257,34.0794V11.428q0-5.1357,2.4571-8.0854t7.34-2.95q4.8984,0,7.3789,2.95t2.4795,8.0854v3.9434h-4.5849V11.1531q0-6.328-5.15-6.3281a4.5962,4.5962,0,0,0-3.8633,1.6509,7.4543,7.4543,0,0,0-1.2881,4.6772V34.324a7.4529,7.4529,0,0,0,1.2881,4.6768,4.5962,4.5962,0,0,0,3.8633,1.6509q5.15,0,5.15-6.3277V28.638h4.5849v5.4414q0,5.1357-2.4795,8.07t-7.3789,2.9346q-4.8837,0-7.34-2.9346Q279.0248,39.2152,279.0257,34.0794Z"/><path class="cls-1" d="M301.8,5.2835V.8206h21.0312V5.2835h-8.07V44.6561h-4.8906V5.2835Z"/><path class="cls-1" d="M326.4388,44.6561V.8206h9.7969q5.0054,0,7.2637,2.4t2.2588,7.3208V12.59a11.7473,11.7473,0,0,1-1.19,5.7314,6.4976,6.4976,0,0,1-4.0039,2.98q5.9283,1.6509,5.9278,9.3847v3.6988q0,5.0134-2.4727,7.6421-2.4711,2.6293-7.5078,2.6289ZM331.33,19.4368h3.7246a6.4315,6.4315,0,0,0,4.42-1.2685q1.393-1.2678,1.3926-4.57V11.0306a6.9835,6.9835,0,0,0-1.1045-4.356,4.43,4.43,0,0,0-3.6787-1.3911H331.33Zm0,20.7867h5.1972a4.9363,4.9363,0,0,0,3.9424-1.4517,6.786,6.786,0,0,0,1.2539-4.5093V30.3807q0-3.5764-1.4521-5.044t-4.6924-1.4673H331.33Z"/><path class="cls-1" d="M350.5873,34.0794V11.428q0-5.1657,2.5332-8.1T360.5677.3929q4.96,0,7.5313,2.9346t2.5723,8.1005V34.0794q0,5.105-2.5723,8.0547t-7.5313,2.95q-4.8822,0-7.4316-2.95T350.5873,34.0794Zm4.7685.2446a7.3729,7.3729,0,0,0,1.3037,4.6919,4.6925,4.6925,0,0,0,3.9082,1.6358q5.212,0,5.212-6.3277V11.1531a7.4543,7.4543,0,0,0-1.2872-4.6772,5.4711,5.4711,0,0,0-7.833,0,7.3879,7.3879,0,0,0-1.3037,4.6772Z"/><path class="cls-1" d="M108.2391,96.0794V73.428q0-5.1657,2.5332-8.1t7.4473-2.9346q4.96,0,7.5312,2.9346t2.5723,8.1V96.0794q0,5.1049-2.5723,8.0547-2.5707,2.95-7.5312,2.95-4.8824,0-7.4316-2.95T108.2391,96.0794Zm4.7686.2446a7.3729,7.3729,0,0,0,1.3037,4.6919,4.6925,4.6925,0,0,0,3.9082,1.6358q5.2119,0,5.2119-6.3277V73.1531a7.4543,7.4543,0,0,0-1.2871-4.6772,5.4711,5.4711,0,0,0-7.833,0,7.3879,7.3879,0,0,0-1.3037,4.6772Z"/><path class="cls-1" d="M131.869,106.6561l8.835-22.59L132.45,62.8206h5.0439L144.28,80.367l6.8164-17.5464h4.5547l-8.1923,21.2451,8.7734,22.59h-5.1358l-7.2753-18.8916-7.3057,18.8916Z"/><path class="cls-1" d="M159.7782,96.0794V73.428q0-5.1657,2.5332-8.1t7.4473-2.9346q4.96,0,7.5312,2.9346t2.5723,8.1V96.0794q0,5.1049-2.5723,8.0547t-7.5312,2.95q-4.8824,0-7.4317-2.95T159.7782,96.0794Zm4.7685.2446a7.3723,7.3723,0,0,0,1.3038,4.6919,4.6923,4.6923,0,0,0,3.9082,1.6358q5.2119,0,5.2119-6.3277V73.1531a7.4543,7.4543,0,0,0-1.2871-4.6772,5.4711,5.4711,0,0,0-7.833,0,7.3873,7.3873,0,0,0-1.3038,4.6772Z"/><path class="cls-1" d="M184.4774,106.6561V62.8206h9.5982q5.0288,0,7.4521,2.7974,2.4214,2.7963,2.4219,7.9321v5.2578q0,10.5769-10.253,10.5767H189.368v17.2715Zm4.8906-21.6734h4.3111a5.3462,5.3462,0,0,0,4.081-1.3906,6.4293,6.4293,0,0,0,1.2989-4.4785V73.2752a7.1034,7.1034,0,0,0-1.1924-4.5239,4.64,4.64,0,0,0-3.8213-1.4678H189.368Z"/><path class="cls-1" d="M207.3119,96.0794V73.428q0-5.1657,2.5332-8.1t7.4473-2.9346q4.96,0,7.5312,2.9346t2.5723,8.1V96.0794q0,5.1049-2.5723,8.0547t-7.5312,2.95q-4.8823,0-7.4317-2.95T207.3119,96.0794Zm4.7685.2446a7.3729,7.3729,0,0,0,1.3037,4.6919,4.6925,4.6925,0,0,0,3.9083,1.6358q5.2119,0,5.2119-6.3277V73.1531a7.4543,7.4543,0,0,0-1.2871-4.6772,5.4712,5.4712,0,0,0-7.8331,0,7.3879,7.3879,0,0,0-1.3037,4.6772Z"/><path class="cls-1" d="M232.0121,106.6561V62.8206h4.8906V82.5682h10.7607V62.8206h4.8907v43.8355h-4.8907V86.9393H236.9027v19.7168Z"/><path class="cls-1" d="M257.5365,106.6561V62.8206h4.3711V95.4984L265.93,83.4661l6.9014-20.6455h5.3692v43.8355H273.83V71.8006l-4.7207,14.6255-6.4541,20.23Z"/><path class="cls-1" d="M108.3612,158.0794V153.83h4.5859v4.4941a7.484,7.484,0,0,0,1.2793,4.6768,4.5586,4.5586,0,0,0,3.8409,1.65q5.12,0,5.12-6.6944v-3.4541a7.2946,7.2946,0,0,0-1.417-4.8457,5.1981,5.1981,0,0,0-4.1914-1.666h-2.0723V143.62h2.3164a5.0345,5.0345,0,0,0,3.916-1.5888,6.3457,6.3457,0,0,0,1.4483-4.4327v-1.9873a8.6276,8.6276,0,0,0-1.2344-5.1045,4.5,4.5,0,0,0-3.8857-1.6816,4.5586,4.5586,0,0,0-3.8409,1.65,7.487,7.487,0,0,0-1.2793,4.6777v2.9649h-4.5244v-2.7823q0-5.165,2.4336-8.0546t7.333-2.8887q4.9131,0,7.4014,2.95t2.4873,8.0849v1.1006a11.3017,11.3017,0,0,1-1.3594,5.7627,7.47,7.47,0,0,1-4.0185,3.3164,7.1162,7.1162,0,0,1,4.0332,3.27,11.4216,11.4216,0,0,1,1.3447,5.7471v3.4541q0,5.1357-2.4873,8.07t-7.4014,2.9346q-4.8984,0-7.3633-2.9346T108.3612,158.0794Z"/><path class="cls-1" d="M131.8075,164.346H134.62a6.5456,6.5456,0,0,0,1.4512-2.6445,16.7934,16.7934,0,0,0,.5048-3.7442l1.6817-33.1367h17.5762V164.346h3.332v10.332h-4.7686v-6.0214H136.576v6.0214h-4.7685Zm7.5742,0h11.5615V129.2835H142.745l-1.4824,28.61a19.7694,19.7694,0,0,1-.55,3.9443A6.18,6.18,0,0,1,139.3817,164.346Z"/><path class="cls-1" d="M163.0487,158.0794V135.428q0-5.1649,2.5332-8.1t7.4473-2.9346q4.96,0,7.5312,2.9346t2.5723,8.1v22.6514q0,5.105-2.5723,8.0547t-7.5312,2.95q-4.8823,0-7.4317-2.95Q163.0487,163.1854,163.0487,158.0794Zm4.7686.2451a7.3707,7.3707,0,0,0,1.3037,4.6914,4.6923,4.6923,0,0,0,3.9082,1.6358q5.2119,0,5.2119-6.3272V135.1536a7.4559,7.4559,0,0,0-1.2871-4.6777,5.4722,5.4722,0,0,0-7.833,0,7.3888,7.3888,0,0,0-1.3037,4.6777Z"/><path class="cls-1" d="M187.7479,168.6566v-43.836h9.5982q5.0287,0,7.4521,2.7979,2.4214,2.7963,2.4219,7.9316v5.2578q0,10.5777-10.2529,10.5772h-4.3287v17.2715Zm4.8906-21.6739H196.95a5.3462,5.3462,0,0,0,4.081-1.3906,6.4286,6.4286,0,0,0,1.2989-4.4785v-5.8379a7.105,7.105,0,0,0-1.1924-4.5244,4.64,4.64,0,0,0-3.8213-1.4678h-4.6773Z"/><path class="cls-1" d="M210.5834,158.0794V135.428q0-5.1649,2.5332-8.1t7.4472-2.9346q4.96,0,7.5313,2.9346t2.5723,8.1v22.6514q0,5.105-2.5723,8.0547t-7.5313,2.95q-4.8822,0-7.4316-2.95Q210.5834,163.1854,210.5834,158.0794Zm4.7685.2451a7.3713,7.3713,0,0,0,1.3037,4.6914,4.6925,4.6925,0,0,0,3.9082,1.6358q5.2119,0,5.2119-6.3272V135.1536a7.4559,7.4559,0,0,0-1.2871-4.6777,5.4722,5.4722,0,0,0-7.833,0,7.3894,7.3894,0,0,0-1.3037,4.6777Z"/><path class="cls-1" d="M235.2826,168.6566v-43.836H245.08q5.0054,0,7.2636,2.4t2.2588,7.32V136.59a11.7487,11.7487,0,0,1-1.19,5.7314,6.4979,6.4979,0,0,1-4.0039,2.9805q5.9282,1.6509,5.9277,9.3847v3.6983q0,5.0141-2.4726,7.6426t-7.5078,2.6289Zm4.8906-25.22h3.7246a6.4288,6.4288,0,0,0,4.42-1.2685q1.3932-1.267,1.3926-4.5694v-2.5683a6.981,6.981,0,0,0-1.1045-4.3555,4.4289,4.4289,0,0,0-3.6787-1.3916h-4.7539Zm0,20.7871h5.1973a4.9366,4.9366,0,0,0,3.9424-1.4521,6.7845,6.7845,0,0,0,1.2539-4.5088v-3.8818q0-3.5772-1.4522-5.044t-4.6924-1.4678h-4.249Z"/><path class="cls-1" d="M260.1049,130.9046v-6.084h4.7685v5.5947l-2.4775,5.9913h-2.043l1.6094-5.502Z"/><path class="cls-1" d="M269.0306,168.6566a12.8228,12.8228,0,0,0,.8252-5.2579v-6.8173q0-7.4883,5.4414-9.14-5.38-1.7417-5.38-9.0176V134.848q0-4.9835,2.3535-7.5049t7.4287-2.5225h9.751v43.836H284.56v-18.708h-3.4238a6.8712,6.8712,0,0,0-4.8,1.4667q-1.5894,1.4679-1.5889,5.044v6.8779a13.7138,13.7138,0,0,1-.8252,5.3194Zm5.7168-29.1631q0,3.394,1.5127,4.6924a6.9186,6.9186,0,0,0,4.6006,1.3H284.56V129.2835h-4.7383a4.7015,4.7015,0,0,0-3.8671,1.4834,7.05,7.05,0,0,0-1.2071,4.5088Z"/><path class="cls-1" d="M107.23,186.8206h4.8916l4.3047,15.2334,3.1172,11.0264,2.57-11.0352,3.9463-15.2246h5.0752l-9.3848,34.2071a25.3067,25.3067,0,0,1-1.36,4.371,9.9852,9.9852,0,0,1-2.0635,3.0411,7.1553,7.1553,0,0,1-3.332,1.8652,16.8482,16.8482,0,0,1-4.9522.4121V226.346a6.9685,6.9685,0,0,0,4.2442-.8564,5.6564,5.6564,0,0,0,2.0381-3.4873l1.0107-2.876Z"/><path class="cls-1" d="M134.7118,230.6566v-43.836h4.8906v21.1846l11.6465-21.1846h4.9219l-11.0655,19.9922,11.4629,23.8438h-5.0136l-9.3838-19.045-2.5684,4.3409v14.7041Z"/><path class="cls-1" d="M160.2977,230.6566v-43.836h9.5977q5.0288,0,7.4521,2.7979,2.4215,2.7963,2.4219,7.9316v5.2578q0,10.5777-10.2529,10.5772h-4.3282v17.2715Zm4.8906-21.6739h4.3106a5.346,5.346,0,0,0,4.081-1.3906,6.4286,6.4286,0,0,0,1.2989-4.4785v-5.8379a7.105,7.105,0,0,0-1.1924-4.5244,4.64,4.64,0,0,0-3.8213-1.4678h-4.6768Z"/><path class="cls-1" d="M182.245,230.6566l8.37-43.836h7.19l8.376,43.836H201.29l-1.6943-8.835H188.4852l-1.6543,8.835Zm7.0244-13.0225h9.523l-4.8194-25.1113Z"/><path class="cls-1" d="M209.9115,230.6566v-43.836h4.8906v43.836Z"/><path class="cls-1" d="M219.7845,230.6566v-43.836h4.8907v19.7481h10.7607V186.8206h4.8906v43.836h-4.8906V210.94H224.6752v19.7168Z"/><path class="cls-1" d="M245.309,230.6566v-43.836h4.371v32.6778l4.0225-12.0323,6.9014-20.6455h5.3691v43.836h-4.3711V195.8011l-4.7207,14.625-6.4541,20.2305Z"/><path class="cls-2" d="M38.591,26.1971c-1.5288,13.4166-2.2082,19.3617-2.2082,19.3617a3.6217,3.6217,0,0,1,1.0191-.111c.68,0,4.276.9037,4.276,4.16a4.376,4.376,0,0,1-4.3031,4.36c-1.3589,0-1.4721-.2264-1.4721-.2264a42.5112,42.5112,0,0,1-6.654-23.101c0-8.86.5956-16.9588.5956-21.5156A13.0657,13.0657,0,0,0,26.7008.5935,13.0588,13.0588,0,0,0,23.56,9.125c0,4.5568.5934,12.6534.5934,21.5156a42.5211,42.5211,0,0,1-6.6517,23.101s-.1133.2264-1.4722.2264a4.3777,4.3777,0,0,1-4.3031-4.36c0-3.2568,3.5943-4.16,4.2737-4.16a3.623,3.623,0,0,1,1.0192.111s-.6795-5.9451-2.2082-19.364C11.8392,11.8428,1.0519,6.8308,1.0519,6.8308V68.9157H15.4334a22.6586,22.6586,0,0,0,8.7195,14.3249s2.4346,2.0949,2.5479,2.7743c.1132-.6794,2.5479-2.7743,2.5479-2.7743a22.6416,22.6416,0,0,0,8.7194-14.3249H52.35V6.833S41.5646,11.8428,38.591,26.1971ZM5.4117,15.976a28.1158,28.1158,0,0,1,5.0391,10.588c.6229,5.2656,1.8685,15.5138,1.8685,15.5138A8.3961,8.3961,0,0,0,7.7331,47.57H5.4117Zm9.5121,48.75H5.4117V51.8731H7.7331c1.2184,5.5759,7.1907,6.4547,8.0966,6.4547A25.0019,25.0019,0,0,0,14.9238,64.7258Zm9.5688,12.966a15.121,15.121,0,0,1-4.4164-8.7761h4.4164ZM19.37,64.6692a16.5089,16.5089,0,0,1,.68-5.2657c4.3325.684,4.5,5.2657,4.5,5.2657Zm7.3312-6.1444s-3.7936-2.5751-4.926-3.3111c3.03-4.5862,4.926-11.6071,4.926-11.6071s1.8979,7.0209,4.9259,11.6071C30.4943,55.95,26.7008,58.5248,26.7008,58.5248Zm2.2081,19.167V68.9157h4.4164A15.1044,15.1044,0,0,1,28.9089,77.6918Zm-.0566-13.0226s.1676-4.5817,4.5025-5.2657a16.58,16.58,0,0,1,.6794,5.2657Zm19.1376.0566H38.4777a25.0019,25.0019,0,0,0-.9059-6.398c.9059,0,6.88-.8788,8.0967-6.4547H47.99Zm0-17.1558H45.6685a8.3961,8.3961,0,0,0-4.5863-5.4922S42.3279,31.83,42.9507,26.564A28.1153,28.1153,0,0,1,47.99,15.976Z"/><path class="cls-1" d="M217.1677,180.64v3.3247h-3.2588V180.64Z"/><path class="cls-1" d="M211.0427,180.64v3.3247h-3.3838V180.64Z"/><rect class="cls-3" x="77.5875" y="115.4724" width="5.0833" height="115.2485"/><rect class="cls-4" x="77.5998" y="1.0786" width="5.0622" height="114.6136"/></svg>