<svg width="24" height="24" viewBox="0 0 24 24" fill="none" xmlns="http://www.w3.org/2000/svg">
<path d="M12 24C5.28 24 3.47078 23.6603 1.90523 22.0948C0.332308 20.5181 0 18.72 0 12C0 5.28 0.339693 3.48185 1.90523 1.90523C3.47078 0.339693 5.28 0 12 0C18.72 0 20.5292 0.339693 22.0948 1.90523C23.6677 3.48185 24 5.28 24 12C24 18.72 23.6677 20.5181 22.0948 22.0948C20.5292 23.6603 18.72 24 12 24Z" fill="white"/>
<path d="M16.7077 11.9887C16.2499 11.9887 15.9508 11.6859 15.9508 11.2391C15.9508 10.7997 16.2536 10.5007 16.7077 10.5007H17.904V11.9887H16.7077ZM18.9046 9.63666H16.5896C15.6074 9.63666 14.9354 10.2791 14.9354 11.2022C14.9354 11.9333 15.3526 12.4871 16.0135 12.6791L14.7508 14.6028H15.8695L17.0068 12.8527H17.9003V14.6028H18.9046V9.63666ZM6.38032 10.94V9.44096H8.32617V13.6908H5.88555C6.1477 13.233 6.38032 12.1733 6.38032 10.94ZM9.35632 8.48096H5.3871V10.9807C5.3871 12.2545 5.16185 13.2477 4.86277 13.6945H4.38647V15.9616H5.36862V14.6213H9.0831V15.9616H10.0652V13.6945H9.35632V8.48096ZM12.3508 13.761L12.2622 13.7019L13.4215 9.63666H11.0769L10.8258 10.5413L12.1883 10.5302L11.3022 13.6317C11.1471 14.1967 11.5274 14.721 12.1477 14.721C12.3434 14.721 12.5354 14.673 12.7495 14.5364L14.3446 13.4582L13.8573 12.7382L12.3508 13.761ZM13.0302 8.70251C13.5249 8.70251 13.7317 8.51788 13.7317 8.07851C13.7317 7.62066 13.5175 7.43604 13.0302 7.43604C12.5428 7.43604 12.3286 7.62066 12.3286 8.07851C12.3323 8.51788 12.5354 8.70251 13.0302 8.70251Z" fill="black"/>
</svg>
