<svg aria-hidden="true" style=" width: 20; height: 30; overflow: hidden;" version="1.1" xmlns="http://www.w3.org/2000/svg" xmlns:xlink="http://www.w3.org/1999/xlink">
<defs>
<symbol id="icon-action_white" viewBox="0 0 32 32">
<path fill="#fff" style="fill: var(--color1, #fff)" d="M16 32c-8.96 0-11.372-0.453-13.46-2.54-2.097-2.102-2.54-4.5-2.54-13.46s0.453-11.358 2.54-13.46c2.087-2.087 4.5-2.54 13.46-2.54s11.372 0.453 13.46 2.54c2.097 2.102 2.54 4.5 2.54 13.46s-0.443 11.357-2.54 13.46c-2.087 2.087-4.5 2.54-13.46 2.54z"></path>
<path fill="#000" style="fill: var(--color2, #000)" d="M22.277 15.985c-0.61 0-1.009-0.404-1.009-0.999 0-0.586 0.404-0.985 1.009-0.985h1.595v1.984h-1.595zM25.206 12.849h-3.087c-1.31 0-2.206 0.857-2.206 2.087 0 0.975 0.556 1.713 1.437 1.969l-1.684 2.565h1.492l1.516-2.333h1.191v2.333h1.339v-6.622zM8.507 14.587v-1.999h2.594v5.666h-3.254c0.35-0.61 0.66-2.023 0.66-3.668zM12.475 11.308h-5.292v3.333c0 1.698-0.3 3.023-0.699 3.618h-0.635v3.023h1.31v-1.787h4.953v1.787h1.309v-3.023h-0.945v-6.951zM16.468 18.348l-0.118-0.079 1.546-5.42h-3.126l-0.335 1.206 1.817-0.015-1.181 4.135c-0.207 0.753 0.3 1.452 1.127 1.452 0.261 0 0.517-0.064 0.802-0.246l2.127-1.438-0.65-0.96-2.009 1.364zM17.374 11.603c0.66 0 0.935-0.246 0.935-0.832 0-0.61-0.286-0.857-0.935-0.857s-0.935 0.246-0.935 0.857c0.005 0.586 0.276 0.832 0.935 0.832z"></path>
</symbol>
</defs>
</svg>
